<?xml version="1.0" standalone="no"?>
<!DOCTYPE svg PUBLIC "-//W3C//DTD SVG 20010904//EN"
 "http://www.w3.org/TR/2001/REC-SVG-20010904/DTD/svg10.dtd">
<svg version="1.0" xmlns="http://www.w3.org/2000/svg"
 width="48.000000pt" height="48.000000pt" viewBox="0 0 48.000000 48.000000"
 preserveAspectRatio="xMidYMid meet">

<g transform="translate(0.000000,48.000000) scale(0.100000,-0.100000)"
fill="#000000" stroke="none">
<path d="M270 420 c-11 -11 -25 -39 -31 -63 -9 -37 -17 -47 -50 -61 -21 -9
-48 -31 -60 -48 -29 -40 -37 -110 -15 -142 22 -35 20 -39 -11 -31 -39 9 -53
23 -53 51 0 15 -6 24 -15 24 -18 0 -20 -32 -4 -62 20 -38 68 -48 233 -48 138
0 156 2 164 17 13 25 5 40 -45 88 -40 38 -44 47 -41 81 3 35 7 41 50 62 69 32
79 90 21 113 -15 6 -40 17 -55 25 -36 19 -65 17 -88 -6z m80 -24 c6 -8 24 -16
38 -18 19 -2 28 -10 30 -24 2 -17 -6 -25 -37 -37 -49 -20 -71 -51 -71 -100 0
-34 7 -47 50 -90 28 -28 50 -52 50 -54 0 -2 -18 -3 -40 -3 -33 0 -42 4 -49 24
-5 13 -17 26 -25 29 -9 4 -16 13 -16 21 0 8 -14 26 -31 40 -34 29 -79 35 -79
11 0 -9 9 -15 23 -15 26 0 51 -23 61 -57 4 -13 14 -23 22 -23 8 0 14 -7 14
-15 0 -11 -12 -15 -51 -15 -43 0 -55 5 -81 30 -27 28 -30 36 -25 73 7 49 61
107 101 107 39 0 76 21 92 51 10 21 11 30 2 35 -6 4 -14 2 -16 -4 -5 -16 -31
-42 -42 -42 -11 0 5 57 21 76 15 18 43 18 59 0z"/>
</g>
</svg>